<svg width="38" height="42" viewBox="0 0 38 42" fill="none" xmlns="http://www.w3.org/2000/svg">
<path fill-rule="evenodd" clip-rule="evenodd" d="M10.8518 9.42867C11.6245 8.8738 12.5329 8.57764 13.4621 8.57764C14.0588 8.57764 14.5424 9.09745 14.5424 9.73867C14.5424 10.3799 14.0588 10.8997 13.4621 10.8997C12.9602 10.8997 12.4695 11.0597 12.0521 11.3594C11.6348 11.6591 11.3095 12.0851 11.1174 12.5835C10.9253 13.0819 10.8751 13.6304 10.973 14.1595C11.0709 14.6886 11.3126 15.1746 11.6676 15.5561C12.0225 15.9376 12.4747 16.1974 12.967 16.3026C13.4593 16.4079 13.9696 16.3538 14.4334 16.1474C14.8971 15.9409 15.2935 15.5913 15.5723 15.1428C15.8512 14.6942 16.0001 14.1668 16.0001 13.6274C16.0001 12.9861 16.4837 12.4663 17.0803 12.4663C17.677 12.4663 18.1606 12.9861 18.1606 13.6274C18.1606 14.6261 17.8851 15.6024 17.3688 16.4328C16.8525 17.2633 16.1187 17.9105 15.2602 18.2927C14.4016 18.6749 13.4569 18.7749 12.5455 18.5801C11.6341 18.3852 10.7969 17.9043 10.1398 17.1981C9.48273 16.4918 9.03525 15.5921 8.85395 14.6125C8.67266 13.633 8.76571 12.6176 9.12132 11.6949C9.47694 10.7722 10.0792 9.98354 10.8518 9.42867Z" fill="#8D98AA"/>
<path fill-rule="evenodd" clip-rule="evenodd" d="M36.9332 15.3105C37.5212 15.3105 37.9979 15.8335 37.9979 16.4787V26.2599C37.9979 31.2637 37.0974 35.0702 34.807 37.5971C32.5152 40.1256 29.0611 41.1203 24.5227 41.1203H13.8854C9.34835 41.1203 5.8944 40.126 3.60223 37.5978C1.31145 35.0711 0.410156 31.2646 0.410156 26.2599V22.3272C0.410156 21.682 0.886851 21.159 1.47488 21.159C2.06292 21.159 2.53961 21.682 2.53961 22.3272V26.2599C2.53961 31.0365 3.41286 34.0761 5.11198 35.9502C6.8097 37.8227 9.56099 38.784 13.8854 38.784H24.5227C28.8485 38.784 31.5997 37.8224 33.2971 35.9497C34.9959 34.0755 35.8685 31.0359 35.8685 26.2599V16.4787C35.8685 15.8335 36.3452 15.3105 36.9332 15.3105Z" fill="#8D98AA"/>
<path fill-rule="evenodd" clip-rule="evenodd" d="M3.64654 4.17361C5.9692 1.69695 9.46912 0.722656 14.0698 0.722656H21.2626C21.8556 0.722656 22.3363 1.23527 22.3363 1.86761C22.3363 2.49995 21.8556 3.01256 21.2626 3.01256H14.0698C9.68101 3.01256 6.88797 3.95567 5.16506 5.79281C3.44215 7.62996 2.55768 10.6082 2.55768 15.288C2.55768 15.9203 2.07694 16.4329 1.48392 16.4329C0.890895 16.4329 0.410156 15.9203 0.410156 15.288C0.410156 10.3822 1.32387 6.65026 3.64654 4.17361Z" fill="#8D98AA"/>
<path fill-rule="evenodd" clip-rule="evenodd" d="M24.4238 7.45566C24.4238 6.8359 24.9242 6.3335 25.5414 6.3335H35.8355C36.4527 6.3335 36.9531 6.8359 36.9531 7.45566C36.9531 8.07541 36.4527 8.57782 35.8355 8.57782H25.5414C24.9242 8.57782 24.4238 8.07541 24.4238 7.45566Z" fill="#8D98AA"/>
<path fill-rule="evenodd" clip-rule="evenodd" d="M30.6886 0.722656C31.2653 0.722656 31.7327 1.26044 31.7327 1.92383V12.9874C31.7327 13.6508 31.2653 14.1886 30.6886 14.1886C30.112 14.1886 29.6445 13.6508 29.6445 12.9874V1.92383C29.6445 1.26044 30.112 0.722656 30.6886 0.722656Z" fill="#8D98AA"/>
<path fill-rule="evenodd" clip-rule="evenodd" d="M29.6977 22.801L22.3083 29.6759L22.2886 29.6937C21.3903 30.4898 20.263 30.925 19.0997 30.925C17.9364 30.925 16.8092 30.4898 15.9108 29.6937C15.9011 29.6852 15.8916 29.6764 15.8822 29.6674L15.3117 29.1246C14.8341 28.7104 14.2474 28.4684 13.6346 28.4332C13.0181 28.3978 12.4071 28.5736 11.8892 28.9352L3.12273 35.3122C2.6334 35.6682 1.96882 35.5295 1.63833 35.0024C1.30785 34.4754 1.43661 33.7596 1.92594 33.4037L10.7143 27.0107C11.6137 26.379 12.6763 26.0718 13.7485 26.1334C14.8207 26.195 15.8469 26.6223 16.6787 27.3535C16.6896 27.363 16.7002 27.3727 16.7106 27.3826L17.2828 27.927C17.7962 28.3764 18.4378 28.622 19.0997 28.622C19.7635 28.622 20.4068 28.3751 20.9209 27.9233L28.3104 21.0484L28.33 21.0306C29.2284 20.2345 30.3556 19.7993 31.519 19.7993C32.6823 19.7993 33.8095 20.2345 34.7079 21.0306L34.7275 21.0485L37.6285 23.7476C38.0753 24.1634 38.1246 24.8906 37.7386 25.3718C37.3526 25.8531 36.6775 25.9062 36.2306 25.4904L33.3402 22.801C32.826 22.3492 32.1827 22.1024 31.519 22.1024C30.8552 22.1024 30.2119 22.3493 29.6977 22.801Z" fill="#8D98AA"/>
</svg>
