<svg width="59" height="54" viewBox="0 0 59 54" fill="none" xmlns="http://www.w3.org/2000/svg">
<path d="M25.198 50.625C27.5739 50.625 29.5 48.8621 29.5 46.6875C29.5 44.5129 27.5739 42.75 25.198 42.75C22.822 42.75 20.8959 44.5129 20.8959 46.6875C20.8959 48.8621 22.822 50.625 25.198 50.625Z" fill="white"/>
<path d="M46.0937 50.625C48.4697 50.625 50.3958 48.8621 50.3958 46.6875C50.3958 44.5129 48.4697 42.75 46.0937 42.75C43.7177 42.75 41.7916 44.5129 41.7916 46.6875C41.7916 48.8621 43.7177 50.625 46.0937 50.625Z" fill="white"/>
<path d="M6.146 6.75L17.2085 13.5L23.3543 38.25H47.9377L54.0835 19.125H30.7293" stroke="white" stroke-width="2" stroke-linecap="round" stroke-linejoin="round"/>
<path d="M30.7291 29.25H39.6685H50.3958" stroke="white" stroke-width="2" stroke-linecap="round" stroke-linejoin="round"/>
</svg>
